<svg xmlns="http://www.w3.org/2000/svg" xmlns:xlink="http://www.w3.org/1999/xlink" width="500" zoomAndPan="magnify" viewBox="0 0 375 187.499995" height="250" preserveAspectRatio="xMidYMid meet" version="1.0"><defs><g/><clipPath id="19fb363985"><path d="M 294 47 L 338 47 L 338 93 L 294 93 Z M 294 47 " clip-rule="nonzero"/></clipPath><clipPath id="5b047a50f8"><path d="M 285.171875 54.816406 L 315.933594 26.382812 L 358.582031 72.527344 L 327.820312 100.957031 Z M 285.171875 54.816406 " clip-rule="nonzero"/></clipPath><clipPath id="8c81ad9712"><path d="M 285.171875 54.816406 L 315.933594 26.382812 L 358.582031 72.527344 L 327.820312 100.957031 Z M 285.171875 54.816406 " clip-rule="nonzero"/></clipPath><clipPath id="8b89f1ef0c"><path d="M 316 27 L 361 27 L 361 72 L 316 72 Z M 316 27 " clip-rule="nonzero"/></clipPath><clipPath id="6f909224ad"><path d="M 307.496094 34.179688 L 338.257812 5.75 L 380.90625 51.890625 L 350.144531 80.324219 Z M 307.496094 34.179688 " clip-rule="nonzero"/></clipPath><clipPath id="9efd19136e"><path d="M 307.496094 34.179688 L 338.257812 5.75 L 380.90625 51.890625 L 350.144531 80.324219 Z M 307.496094 34.179688 " clip-rule="nonzero"/></clipPath></defs><g fill="#0d5152" fill-opacity="1"><g transform="translate(27.556799, 121.943738)"><g><path d="M 39.078125 -66.921875 C 39.078125 -65.273438 38.476562 -63.867188 37.28125 -62.703125 C 36.082031 -61.546875 34.617188 -60.96875 32.890625 -60.96875 C 29.148438 -60.96875 26.738281 -60.3125 25.65625 -59 C 24.570312 -57.6875 24.03125 -55.609375 24.03125 -52.765625 L 24.03125 -52.328125 L 29.859375 -52.328125 C 32.035156 -52.328125 33.832031 -51.707031 35.25 -50.46875 C 36.675781 -49.238281 37.390625 -47.613281 37.390625 -45.59375 C 37.390625 -43.71875 36.828125 -42.066406 35.703125 -40.640625 C 34.578125 -39.222656 32.554688 -38.515625 29.640625 -38.515625 L 24.484375 -38.515625 L 24.484375 -7.296875 C 24.484375 -5.273438 23.75 -3.550781 22.28125 -2.125 C 20.820312 -0.707031 19.117188 0 17.171875 0 C 15.148438 0 13.425781 -0.707031 12 -2.125 C 10.582031 -3.550781 9.875 -5.273438 9.875 -7.296875 L 9.875 -38.625 L 7.640625 -38.625 C 5.765625 -38.769531 4.171875 -39.535156 2.859375 -40.921875 C 1.546875 -42.304688 0.890625 -43.863281 0.890625 -45.59375 C 0.890625 -47.457031 1.546875 -49.023438 2.859375 -50.296875 C 4.171875 -51.566406 5.765625 -52.242188 7.640625 -52.328125 L 9.875 -52.328125 L 9.875 -54.796875 C 9.875 -59.804688 10.828125 -63.734375 12.734375 -66.578125 C 14.648438 -69.421875 17.253906 -71.421875 20.546875 -72.578125 C 23.835938 -73.742188 27.539062 -74.328125 31.65625 -74.328125 C 33.757812 -74.328125 35.519531 -73.613281 36.9375 -72.1875 C 38.363281 -70.769531 39.078125 -69.015625 39.078125 -66.921875 Z M 39.078125 -66.921875 "/></g></g></g><g fill="#0d5152" fill-opacity="1"><g transform="translate(65.166971, 121.943738)"><g><path d="M 14.375 -57.15625 C 12.28125 -57.15625 10.460938 -57.921875 8.921875 -59.453125 C 7.390625 -60.984375 6.625 -62.800781 6.625 -64.90625 C 6.625 -67.070312 7.390625 -68.921875 8.921875 -70.453125 C 10.460938 -71.992188 12.28125 -72.765625 14.375 -72.765625 C 16.539062 -72.765625 18.390625 -71.992188 19.921875 -70.453125 C 21.460938 -68.921875 22.234375 -67.070312 22.234375 -64.90625 C 22.234375 -62.800781 21.460938 -60.984375 19.921875 -59.453125 C 18.390625 -57.921875 16.539062 -57.15625 14.375 -57.15625 Z M 14.140625 0 C 12.117188 0 10.378906 -0.707031 8.921875 -2.125 C 7.460938 -3.550781 6.734375 -5.273438 6.734375 -7.296875 L 6.734375 -45.140625 C 6.734375 -47.160156 7.484375 -48.863281 8.984375 -50.25 C 10.484375 -51.632812 12.28125 -52.328125 14.375 -52.328125 C 16.320312 -52.328125 17.988281 -51.632812 19.375 -50.25 C 20.757812 -48.863281 21.453125 -47.160156 21.453125 -45.140625 L 21.453125 -7.296875 C 21.453125 -5.273438 20.738281 -3.550781 19.3125 -2.125 C 17.882812 -0.707031 16.160156 0 14.140625 0 Z M 14.140625 0 "/></g></g></g><g fill="#0d5152" fill-opacity="1"><g transform="translate(93.346542, 121.943738)"><g><path d="M 33.453125 -52.890625 C 38.242188 -52.890625 42.472656 -51.726562 46.140625 -49.40625 C 49.816406 -47.082031 52.679688 -43.972656 54.734375 -40.078125 C 56.796875 -36.191406 57.828125 -31.851562 57.828125 -27.0625 L 57.828125 -6.96875 C 57.828125 -4.945312 57.113281 -3.257812 55.6875 -1.90625 C 54.269531 -0.5625 52.585938 0.109375 50.640625 0.109375 C 48.617188 0.109375 46.878906 -0.5625 45.421875 -1.90625 C 43.960938 -3.257812 43.234375 -4.945312 43.234375 -6.96875 L 43.234375 -27.84375 C 43.234375 -30.914062 42.296875 -33.570312 40.421875 -35.8125 C 38.546875 -38.0625 35.890625 -39.1875 32.453125 -39.1875 C 29.234375 -39.1875 26.59375 -38.097656 24.53125 -35.921875 C 22.476562 -33.753906 21.453125 -31.0625 21.453125 -27.84375 L 21.453125 -6.96875 C 21.453125 -4.945312 20.738281 -3.257812 19.3125 -1.90625 C 17.882812 -0.5625 16.203125 0.109375 14.265625 0.109375 C 12.316406 0.109375 10.570312 -0.5625 9.03125 -1.90625 C 7.5 -3.257812 6.734375 -4.945312 6.734375 -6.96875 L 6.734375 -45.921875 C 6.734375 -47.722656 7.3125 -49.257812 8.46875 -50.53125 C 9.632812 -51.800781 10.96875 -52.4375 12.46875 -52.4375 C 13.664062 -52.4375 14.84375 -51.96875 16 -51.03125 C 17.15625 -50.09375 17.847656 -48.503906 18.078125 -46.265625 C 20.097656 -48.503906 22.472656 -50.164062 25.203125 -51.25 C 27.941406 -52.34375 30.691406 -52.890625 33.453125 -52.890625 Z M 33.453125 -52.890625 "/></g></g></g><g fill="#0d5152" fill-opacity="1"><g transform="translate(157.339978, 121.943738)"><g><path d="M 30.65625 0.671875 C 25.789062 0.671875 21.316406 -0.539062 17.234375 -2.96875 C 13.148438 -5.40625 9.890625 -8.660156 7.453125 -12.734375 C 5.023438 -16.816406 3.8125 -21.289062 3.8125 -26.15625 C 3.8125 -31.101562 5.023438 -35.597656 7.453125 -39.640625 C 9.890625 -43.679688 13.148438 -46.898438 17.234375 -49.296875 C 21.316406 -51.691406 25.789062 -52.890625 30.65625 -52.890625 C 35.59375 -52.890625 40.082031 -51.691406 44.125 -49.296875 C 48.164062 -46.898438 51.382812 -43.679688 53.78125 -39.640625 C 56.175781 -35.597656 57.375 -31.101562 57.375 -26.15625 C 57.375 -21.289062 56.175781 -16.816406 53.78125 -12.734375 C 51.382812 -8.660156 48.164062 -5.40625 44.125 -2.96875 C 40.082031 -0.539062 35.59375 0.671875 30.65625 0.671875 Z M 30.65625 -13.140625 C 33.050781 -13.140625 35.21875 -13.71875 37.15625 -14.875 C 39.101562 -16.039062 40.65625 -17.613281 41.8125 -19.59375 C 42.976562 -21.570312 43.5625 -23.757812 43.5625 -26.15625 C 43.5625 -28.550781 42.976562 -30.738281 41.8125 -32.71875 C 40.65625 -34.707031 39.101562 -36.28125 37.15625 -37.4375 C 35.21875 -38.601562 33.050781 -39.1875 30.65625 -39.1875 C 28.332031 -39.1875 26.175781 -38.601562 24.1875 -37.4375 C 22.207031 -36.28125 20.617188 -34.707031 19.421875 -32.71875 C 18.222656 -30.738281 17.625 -28.550781 17.625 -26.15625 C 17.625 -23.757812 18.222656 -21.570312 19.421875 -19.59375 C 20.617188 -17.613281 22.207031 -16.039062 24.1875 -14.875 C 26.175781 -13.71875 28.332031 -13.140625 30.65625 -13.140625 Z M 30.65625 -13.140625 "/></g></g></g><g fill="#0d5152" fill-opacity="1"><g transform="translate(218.526687, 121.943738)"><g><path d="M 27.171875 -52.328125 L 31.328125 -52.328125 C 33.648438 -52.328125 35.445312 -51.6875 36.71875 -50.40625 C 37.988281 -49.132812 38.625 -47.640625 38.625 -45.921875 C 38.625 -43.828125 37.988281 -42.066406 36.71875 -40.640625 C 35.445312 -39.222656 33.648438 -38.515625 31.328125 -38.515625 L 27.171875 -38.515625 L 27.171875 -7.640625 C 27.171875 -5.085938 26.421875 -3.175781 24.921875 -1.90625 C 23.429688 -0.632812 21.785156 0 19.984375 0 C 18.109375 0 16.40625 -0.632812 14.875 -1.90625 C 13.34375 -3.175781 12.578125 -5.085938 12.578125 -7.640625 L 12.578125 -38.515625 L 8.640625 -38.515625 C 5.953125 -38.515625 4.023438 -39.207031 2.859375 -40.59375 C 1.703125 -41.976562 1.125 -43.644531 1.125 -45.59375 C 1.125 -47.15625 1.703125 -48.664062 2.859375 -50.125 C 4.023438 -51.59375 5.953125 -52.328125 8.640625 -52.328125 L 12.578125 -52.328125 L 12.578125 -60.625 C 12.578125 -62.644531 13.269531 -64.347656 14.65625 -65.734375 C 16.039062 -67.117188 17.707031 -67.8125 19.65625 -67.8125 C 21.675781 -67.8125 23.429688 -67.117188 24.921875 -65.734375 C 26.421875 -64.347656 27.171875 -62.644531 27.171875 -60.625 Z M 27.171875 -52.328125 "/></g></g></g><g fill="#0d5152" fill-opacity="1"><g transform="translate(258.269973, 121.943738)"><g><path d="M 54.90625 -29.078125 C 54.90625 -23.765625 52.8125 -21.109375 48.625 -21.109375 L 18.640625 -21.109375 C 19.535156 -18.117188 21.144531 -15.816406 23.46875 -14.203125 C 25.789062 -12.597656 28.335938 -11.753906 31.109375 -11.671875 C 32.972656 -11.597656 34.671875 -11.804688 36.203125 -12.296875 C 37.742188 -12.785156 39.335938 -13.515625 40.984375 -14.484375 C 42.554688 -15.304688 44.144531 -15.695312 45.75 -15.65625 C 47.363281 -15.625 48.65625 -14.785156 49.625 -13.140625 C 50.375 -11.867188 50.632812 -10.5 50.40625 -9.03125 C 50.1875 -7.570312 49.328125 -6.242188 47.828125 -5.046875 C 46.335938 -3.703125 44.148438 -2.394531 41.265625 -1.125 C 38.378906 0.144531 34.617188 0.78125 29.984375 0.78125 C 24.816406 0.78125 20.265625 -0.429688 16.328125 -2.859375 C 12.398438 -5.296875 9.332031 -8.570312 7.125 -12.6875 C 4.914062 -16.800781 3.8125 -21.289062 3.8125 -26.15625 C 3.8125 -31.175781 4.914062 -35.6875 7.125 -39.6875 C 9.332031 -43.695312 12.421875 -46.898438 16.390625 -49.296875 C 20.359375 -51.691406 24.960938 -52.890625 30.203125 -52.890625 C 35.210938 -52.890625 39.570312 -51.765625 43.28125 -49.515625 C 46.988281 -47.265625 49.851562 -44.320312 51.875 -40.6875 C 53.894531 -37.0625 54.90625 -33.191406 54.90625 -29.078125 Z M 18.296875 -30.546875 L 42 -30.546875 C 41.84375 -33.609375 40.640625 -36.035156 38.390625 -37.828125 C 36.148438 -39.628906 33.609375 -40.53125 30.765625 -40.53125 C 27.773438 -40.53125 25.132812 -39.648438 22.84375 -37.890625 C 20.5625 -36.128906 19.046875 -33.679688 18.296875 -30.546875 Z M 18.296875 -30.546875 "/></g></g></g><g clip-path="url(#19fb363985)"><g clip-path="url(#5b047a50f8)"><g clip-path="url(#8c81ad9712)"><path fill="#f27457" d="M 337.914062 49.667969 L 300.199219 47.992188 C 292.914062 47.667969 291.683594 61.859375 300.316406 62.09375 L 323.785156 62.730469 L 321.992188 86.34375 C 321.445312 93.535156 335.46875 94.296875 335.871094 86.988281 Z M 337.914062 49.667969 " fill-opacity="1" fill-rule="nonzero"/></g></g></g><g clip-path="url(#8b89f1ef0c)"><g clip-path="url(#6f909224ad)"><g clip-path="url(#9efd19136e)"><path fill="#f27457" d="M 360.238281 29.035156 L 322.523438 27.359375 C 315.238281 27.035156 314.007812 41.226562 322.640625 41.460938 L 346.109375 42.09375 L 344.316406 65.710938 C 343.769531 72.902344 357.796875 73.660156 358.195312 66.351562 Z M 360.238281 29.035156 " fill-opacity="1" fill-rule="nonzero"/></g></g></g></svg>