<svg xmlns="http://www.w3.org/2000/svg" xmlns:xlink="http://www.w3.org/1999/xlink" width="500" zoomAndPan="magnify" viewBox="0 0 375 374.999991" height="500" preserveAspectRatio="xMidYMid meet" version="1.0"><defs><clipPath id="a8834fb8a7"><path d="M 39 123 L 231 123 L 231 316 L 39 316 Z M 39 123 " clip-rule="nonzero"/></clipPath><clipPath id="5502b74d10"><path d="M 0.00390625 153.089844 L 135.492188 27.859375 L 322.320312 229.996094 L 186.828125 355.222656 Z M 0.00390625 153.089844 " clip-rule="nonzero"/></clipPath><clipPath id="49e9e0110c"><path d="M 0.00390625 153.089844 L 135.492188 27.859375 L 322.320312 229.996094 L 186.828125 355.222656 Z M 0.00390625 153.089844 " clip-rule="nonzero"/></clipPath><clipPath id="9957bb32bb"><path d="M 137 33 L 328 33 L 328 226 L 137 226 Z M 137 33 " clip-rule="nonzero"/></clipPath><clipPath id="2c3e3abbe5"><path d="M 97.441406 63.03125 L 232.929688 -62.199219 L 419.757812 139.9375 L 284.265625 265.167969 Z M 97.441406 63.03125 " clip-rule="nonzero"/></clipPath><clipPath id="6e0c73ba0f"><path d="M 97.441406 63.03125 L 232.929688 -62.199219 L 419.757812 139.9375 L 284.265625 265.167969 Z M 97.441406 63.03125 " clip-rule="nonzero"/></clipPath></defs><g clip-path="url(#a8834fb8a7)"><g clip-path="url(#5502b74d10)"><g clip-path="url(#49e9e0110c)"><path fill="#f27457" d="M 230.222656 130.613281 L 65.585938 123.296875 C 33.789062 121.882812 28.417969 183.828125 66.09375 184.847656 L 168.539062 187.625 L 160.714844 290.707031 C 158.332031 322.097656 219.550781 325.410156 221.300781 293.507812 Z M 230.222656 130.613281 " fill-opacity="1" fill-rule="nonzero"/></g></g></g><g clip-path="url(#9957bb32bb)"><g clip-path="url(#2c3e3abbe5)"><g clip-path="url(#6e0c73ba0f)"><path fill="#f27457" d="M 327.660156 40.554688 L 163.023438 33.238281 C 131.222656 31.824219 125.855469 93.769531 163.53125 94.792969 L 265.976562 97.566406 L 258.152344 200.648438 C 255.769531 232.039062 316.988281 235.355469 318.734375 203.453125 Z M 327.660156 40.554688 " fill-opacity="1" fill-rule="nonzero"/></g></g></g></svg>